<svg width="396" height="46" viewBox="0 0 396 46" fill="none" xmlns="http://www.w3.org/2000/svg">
    <g clip-path="url(#clip0_1_28319)">
        <circle cx="18" cy="12" r="11" fill="white" stroke="#FF6F00" stroke-width="2" />
        <path
            d="M18.0002 8C16.8957 8 16.0001 8.89523 16.0001 10.0001C16.0001 11.105 16.8957 12.0003 18.0002 12.0003C19.1047 12.0003 20.0004 11.1046 20.0004 10.0001C20.0004 8.89565 19.1051 8 18.0002 8ZM18.0002 12.9373C16.4983 12.9373 13.5 13.6912 13.5 15.1872V16.4372H22.5V15.1872C22.5 13.6912 19.5021 12.9373 17.9998 12.9373H18.0002Z"
            fill="#FF6F00" />
    </g>
    <g clip-path="url(#clip1_1_28319)">
        <circle cx="35.5" cy="12" r="1.5" fill="#FF6F00" />
        <circle cx="41.5" cy="12" r="1.5" fill="#FF6F00" />
        <circle cx="47.5" cy="12" r="1.5" fill="#FF6F00" />
        <circle cx="53.5" cy="12" r="1.5" fill="#FF6F00" />
        <circle cx="59.5" cy="12" r="1.5" fill="#FF6F00" />
        <circle cx="65.5" cy="12" r="1.5" fill="#FF6F00" />
        <circle cx="71.5" cy="12" r="1.5" fill="#FF6F00" />
        <circle cx="77.5" cy="12" r="1.5" fill="#FF6F00" />
        <circle cx="83.5" cy="12" r="1.5" fill="#FF6F00" />
        <circle cx="89.5" cy="12" r="1.5" fill="#FF6F00" />
        <circle cx="95.5" cy="12" r="1.5" fill="#FF6F00" />
        <circle cx="101.5" cy="12" r="1.5" fill="#FF6F00" />
        <circle cx="107.5" cy="12" r="1.5" fill="#FF6F00" />
        <circle cx="113.5" cy="12" r="1.5" fill="#FF6F00" />
    </g>
    <g clip-path="url(#clip2_1_28319)">
        <circle cx="107" cy="12" r="11" fill="white" stroke="#9D9D9D" stroke-width="2" />
        <path
            d="M107 18C105.924 18 105.044 17.8631 104.36 17.5893C103.676 17.3151 103.333 16.9604 103.333 16.5253C103.333 16.3316 103.423 16.1458 103.603 15.968C103.783 15.7902 104.032 15.6362 104.349 15.506C104.427 15.4633 104.514 15.4553 104.607 15.482C104.701 15.5087 104.769 15.5613 104.811 15.64C104.854 15.7182 104.859 15.802 104.827 15.8913C104.795 15.9807 104.74 16.0467 104.661 16.0893C104.516 16.1409 104.377 16.2051 104.245 16.282C104.112 16.3589 104.033 16.4358 104.007 16.5127C104.084 16.7336 104.406 16.9256 104.975 17.0887C105.544 17.2518 106.219 17.3333 107 17.3333C107.781 17.3333 108.456 17.2518 109.025 17.0887C109.594 16.9256 109.916 16.7336 109.992 16.5127C109.967 16.4358 109.888 16.3589 109.755 16.282C109.623 16.2051 109.484 16.1411 109.339 16.09C109.26 16.0473 109.204 15.9813 109.172 15.892C109.14 15.8027 109.146 15.7187 109.189 15.64C109.231 15.5613 109.3 15.5087 109.393 15.482C109.487 15.4553 109.573 15.4636 109.651 15.5067C109.968 15.6364 110.217 15.7902 110.397 15.968C110.577 16.1458 110.667 16.3316 110.667 16.5253C110.667 16.9609 110.324 17.3156 109.64 17.5893C108.956 17.8631 108.076 18 107 18ZM107.017 15.1667C108.125 14.3044 108.955 13.4607 109.507 12.6353C110.058 11.81 110.334 10.9989 110.333 10.202C110.333 9.03489 109.974 8.15378 109.256 7.55867C108.539 6.964 107.787 6.66667 107 6.66667C106.222 6.66667 105.472 6.96422 104.75 7.55933C104.028 8.15444 103.667 9.03556 103.667 10.2027C103.667 10.9729 103.941 11.7671 104.49 12.5853C105.038 13.4036 105.881 14.264 107.017 15.1667ZM107 15.7347C106.892 15.7347 106.785 15.7147 106.677 15.6747C106.569 15.6347 106.468 15.5787 106.374 15.5067C105.242 14.5818 104.397 13.6798 103.839 12.8007C103.28 11.9216 103 11.0556 103 10.2027C103 9.50756 103.12 8.89911 103.361 8.37733C103.602 7.85556 103.914 7.41822 104.299 7.06533C104.683 6.71244 105.113 6.44667 105.587 6.268C106.062 6.08933 106.533 6 107 6C107.467 6 107.938 6.08933 108.413 6.268C108.888 6.44667 109.317 6.71244 109.701 7.06533C110.086 7.41822 110.398 7.85556 110.639 8.37733C110.88 8.89911 111 9.50756 111 10.2027C111 11.0556 110.72 11.9216 110.161 12.8007C109.602 13.6798 108.757 14.5816 107.625 15.506C107.532 15.578 107.431 15.634 107.323 15.674C107.215 15.7144 107.108 15.7347 107 15.7347ZM107 11.192C107.298 11.192 107.552 11.0893 107.762 10.884C107.972 10.6782 108.077 10.422 108.077 10.1153C108.077 9.81711 107.972 9.56311 107.762 9.35333C107.552 9.14356 107.298 9.03867 107 9.03867C106.71 9.03867 106.458 9.14356 106.244 9.35333C106.03 9.56311 105.923 9.81711 105.923 10.1153C105.923 10.422 106.03 10.6782 106.244 10.884C106.458 11.0898 106.71 11.1924 107 11.192Z"
            fill="#9D9D9D" />
    </g>
    <g clip-path="url(#clip3_1_28319)">
        <circle cx="124.5" cy="12" r="1.5" fill="#9D9D9D" />
        <circle cx="130.5" cy="12" r="1.5" fill="#9D9D9D" />
        <circle cx="136.5" cy="12" r="1.5" fill="#9D9D9D" />
        <circle cx="142.5" cy="12" r="1.5" fill="#9D9D9D" />
        <circle cx="148.5" cy="12" r="1.5" fill="#9D9D9D" />
        <circle cx="154.5" cy="12" r="1.5" fill="#9D9D9D" />
        <circle cx="160.5" cy="12" r="1.5" fill="#9D9D9D" />
        <circle cx="166.5" cy="12" r="1.5" fill="#9D9D9D" />
        <circle cx="172.5" cy="12" r="1.5" fill="#9D9D9D" />
        <circle cx="178.5" cy="12" r="1.5" fill="#9D9D9D" />
        <circle cx="184.5" cy="12" r="1.5" fill="#9D9D9D" />
        <circle cx="190.5" cy="12" r="1.5" fill="#9D9D9D" />
        <circle cx="196.5" cy="12" r="1.5" fill="#9D9D9D" />
        <circle cx="202.5" cy="12" r="1.5" fill="#9D9D9D" />
    </g>
    <g clip-path="url(#clip4_1_28319)">
        <circle cx="196" cy="12" r="11" fill="white" stroke="#9D9D9D" stroke-width="2" />
        <path
            d="M192.667 5.33334H199.333C199.864 5.33334 200.372 5.54406 200.747 5.91913C201.122 6.2942 201.333 6.80291 201.333 7.33334V16.6667C201.333 17.1971 201.122 17.7058 200.747 18.0809C200.372 18.456 199.864 18.6667 199.333 18.6667H192.667C192.136 18.6667 191.627 18.456 191.252 18.0809C190.877 17.7058 190.667 17.1971 190.667 16.6667V7.33334C190.667 6.80291 190.877 6.2942 191.252 5.91913C191.627 5.54406 192.136 5.33334 192.667 5.33334ZM192.667 6.66668C192.49 6.66668 192.32 6.73691 192.195 6.86194C192.07 6.98696 192 7.15653 192 7.33334V16.6667C192 16.8435 192.07 17.0131 192.195 17.1381C192.32 17.2631 192.49 17.3333 192.667 17.3333H199.333C199.51 17.3333 199.68 17.2631 199.805 17.1381C199.93 17.0131 200 16.8435 200 16.6667V7.33334C200 7.15653 199.93 6.98696 199.805 6.86194C199.68 6.73691 199.51 6.66668 199.333 6.66668H192.667ZM194 7.33334H198C198.177 7.33334 198.346 7.40358 198.471 7.52861C198.596 7.65363 198.667 7.8232 198.667 8.00001C198.667 8.17682 198.596 8.34639 198.471 8.47141C198.346 8.59644 198.177 8.66668 198 8.66668H194C193.823 8.66668 193.653 8.59644 193.528 8.47141C193.403 8.34639 193.333 8.17682 193.333 8.00001C193.333 7.8232 193.403 7.65363 193.528 7.52861C193.653 7.40358 193.823 7.33334 194 7.33334ZM194 15.3333H195.333C195.51 15.3333 195.68 15.4036 195.805 15.5286C195.93 15.6536 196 15.8232 196 16C196 16.1768 195.93 16.3464 195.805 16.4714C195.68 16.5964 195.51 16.6667 195.333 16.6667H194C193.823 16.6667 193.653 16.5964 193.528 16.4714C193.403 16.3464 193.333 16.1768 193.333 16C193.333 15.8232 193.403 15.6536 193.528 15.5286C193.653 15.4036 193.823 15.3333 194 15.3333ZM194 12.6667H198C198.177 12.6667 198.346 12.7369 198.471 12.8619C198.596 12.987 198.667 13.1565 198.667 13.3333C198.667 13.5102 198.596 13.6797 198.471 13.8047C198.346 13.9298 198.177 14 198 14H194C193.823 14 193.653 13.9298 193.528 13.8047C193.403 13.6797 193.333 13.5102 193.333 13.3333C193.333 13.1565 193.403 12.987 193.528 12.8619C193.653 12.7369 193.823 12.6667 194 12.6667ZM194 10H198C198.177 10 198.346 10.0702 198.471 10.1953C198.596 10.3203 198.667 10.4899 198.667 10.6667C198.667 10.8435 198.596 11.0131 198.471 11.1381C198.346 11.2631 198.177 11.3333 198 11.3333H194C193.823 11.3333 193.653 11.2631 193.528 11.1381C193.403 11.0131 193.333 10.8435 193.333 10.6667C193.333 10.4899 193.403 10.3203 193.528 10.1953C193.653 10.0702 193.823 10 194 10Z"
            fill="#9D9D9D" />
    </g>
    <g clip-path="url(#clip5_1_28319)">
        <circle cx="213.5" cy="12" r="1.5" fill="#9D9D9D" />
        <circle cx="219.5" cy="12" r="1.5" fill="#9D9D9D" />
        <circle cx="225.5" cy="12" r="1.5" fill="#9D9D9D" />
        <circle cx="231.5" cy="12" r="1.5" fill="#9D9D9D" />
        <circle cx="237.5" cy="12" r="1.5" fill="#9D9D9D" />
        <circle cx="243.5" cy="12" r="1.5" fill="#9D9D9D" />
        <circle cx="249.5" cy="12" r="1.5" fill="#9D9D9D" />
        <circle cx="255.5" cy="12" r="1.5" fill="#9D9D9D" />
        <circle cx="261.5" cy="12" r="1.5" fill="#9D9D9D" />
        <circle cx="267.5" cy="12" r="1.5" fill="#9D9D9D" />
        <circle cx="273.5" cy="12" r="1.5" fill="#9D9D9D" />
        <circle cx="279.5" cy="12" r="1.5" fill="#9D9D9D" />
        <circle cx="285.5" cy="12" r="1.5" fill="#9D9D9D" />
        <circle cx="291.5" cy="12" r="1.5" fill="#9D9D9D" />
    </g>
    <g clip-path="url(#clip6_1_28319)">
        <circle cx="286" cy="12" r="11" fill="white" stroke="#9D9D9D" stroke-width="2" />
        <path
            d="M291.5 16.2507H280.5C280.132 16.2507 279.833 16.5491 279.833 16.9173V17.584C279.833 17.9522 280.132 18.2507 280.5 18.2507H291.5C291.868 18.2507 292.167 17.9522 292.167 17.584V16.9173C292.167 16.5491 291.868 16.2507 291.5 16.2507Z"
            stroke="#9D9D9D" stroke-width="1.2" stroke-linecap="round" stroke-linejoin="round" />
        <path
            d="M281.5 10.5827V16.256M290.5 10.5827V16.256M287.667 10.5827V16.256M284.333 10.5827V16.256M285.36 6.10001L280.18 8.93335C280.075 8.99075 279.988 9.07531 279.927 9.17818C279.866 9.28105 279.834 9.39842 279.833 9.51801V10.1827C279.833 10.2888 279.876 10.3905 279.951 10.4655C280.026 10.5405 280.127 10.5827 280.233 10.5827H291.767C291.873 10.5827 291.975 10.5405 292.05 10.4655C292.125 10.3905 292.167 10.2888 292.167 10.1827V9.51801C292.167 9.39842 292.135 9.28105 292.074 9.17818C292.013 9.07531 291.925 8.99075 291.82 8.93335L286.64 6.10001C286.444 5.99265 286.224 5.93637 286 5.93637C285.776 5.93637 285.556 5.99265 285.36 6.10001Z"
            stroke="#9D9D9D" stroke-width="1.2" stroke-linecap="round" stroke-linejoin="round" />
    </g>
    <g clip-path="url(#clip7_1_28319)">
        <circle cx="303.5" cy="12" r="1.5" fill="#9D9D9D" />
        <circle cx="309.5" cy="12" r="1.5" fill="#9D9D9D" />
        <circle cx="315.5" cy="12" r="1.5" fill="#9D9D9D" />
        <circle cx="321.5" cy="12" r="1.5" fill="#9D9D9D" />
        <circle cx="327.5" cy="12" r="1.5" fill="#9D9D9D" />
        <circle cx="333.5" cy="12" r="1.5" fill="#9D9D9D" />
        <circle cx="339.5" cy="12" r="1.5" fill="#9D9D9D" />
        <circle cx="345.5" cy="12" r="1.5" fill="#9D9D9D" />
        <circle cx="351.5" cy="12" r="1.5" fill="#9D9D9D" />
        <circle cx="357.5" cy="12" r="1.5" fill="#9D9D9D" />
        <circle cx="363.5" cy="12" r="1.5" fill="#9D9D9D" />
        <circle cx="369.5" cy="12" r="1.5" fill="#9D9D9D" />
        <circle cx="375.5" cy="12" r="1.5" fill="#9D9D9D" />
        <circle cx="381.5" cy="12" r="1.5" fill="#9D9D9D" />
    </g>
    <g clip-path="url(#clip8_1_28319)">
        <circle cx="376" cy="12" r="11" fill="white" stroke="#9D9D9D" stroke-width="2" />
        <path
            d="M372.667 5.33334H379.333C379.864 5.33334 380.372 5.54406 380.747 5.91913C381.122 6.2942 381.333 6.80291 381.333 7.33334V16.6667C381.333 17.1971 381.122 17.7058 380.747 18.0809C380.372 18.456 379.864 18.6667 379.333 18.6667H372.667C372.136 18.6667 371.627 18.456 371.252 18.0809C370.877 17.7058 370.667 17.1971 370.667 16.6667V7.33334C370.667 6.80291 370.877 6.2942 371.252 5.91913C371.627 5.54406 372.136 5.33334 372.667 5.33334ZM372.667 6.66668C372.49 6.66668 372.32 6.73691 372.195 6.86194C372.07 6.98696 372 7.15653 372 7.33334V16.6667C372 16.8435 372.07 17.0131 372.195 17.1381C372.32 17.2631 372.49 17.3333 372.667 17.3333H379.333C379.51 17.3333 379.68 17.2631 379.805 17.1381C379.93 17.0131 380 16.8435 380 16.6667V7.33334C380 7.15653 379.93 6.98696 379.805 6.86194C379.68 6.73691 379.51 6.66668 379.333 6.66668H372.667ZM374 7.33334H378C378.177 7.33334 378.346 7.40358 378.471 7.52861C378.596 7.65363 378.667 7.8232 378.667 8.00001C378.667 8.17682 378.596 8.34639 378.471 8.47141C378.346 8.59644 378.177 8.66668 378 8.66668H374C373.823 8.66668 373.653 8.59644 373.528 8.47141C373.403 8.34639 373.333 8.17682 373.333 8.00001C373.333 7.8232 373.403 7.65363 373.528 7.52861C373.653 7.40358 373.823 7.33334 374 7.33334ZM374 15.3333H375.333C375.51 15.3333 375.68 15.4036 375.805 15.5286C375.93 15.6536 376 15.8232 376 16C376 16.1768 375.93 16.3464 375.805 16.4714C375.68 16.5964 375.51 16.6667 375.333 16.6667H374C373.823 16.6667 373.653 16.5964 373.528 16.4714C373.403 16.3464 373.333 16.1768 373.333 16C373.333 15.8232 373.403 15.6536 373.528 15.5286C373.653 15.4036 373.823 15.3333 374 15.3333ZM374 12.6667H378C378.177 12.6667 378.346 12.7369 378.471 12.8619C378.596 12.987 378.667 13.1565 378.667 13.3333C378.667 13.5102 378.596 13.6797 378.471 13.8047C378.346 13.9298 378.177 14 378 14H374C373.823 14 373.653 13.9298 373.528 13.8047C373.403 13.6797 373.333 13.5102 373.333 13.3333C373.333 13.1565 373.403 12.987 373.528 12.8619C373.653 12.7369 373.823 12.6667 374 12.6667ZM374 10H378C378.177 10 378.346 10.0702 378.471 10.1953C378.596 10.3203 378.667 10.4899 378.667 10.6667C378.667 10.8435 378.596 11.0131 378.471 11.1381C378.346 11.2631 378.177 11.3333 378 11.3333H374C373.823 11.3333 373.653 11.2631 373.528 11.1381C373.403 11.0131 373.333 10.8435 373.333 10.6667C373.333 10.4899 373.403 10.3203 373.528 10.1953C373.653 10.0702 373.823 10 374 10Z"
            fill="#9D9D9D" />
    </g>
    <path
        d="M6.01172 36.5653C5.96626 36.1619 5.77876 35.8494 5.44922 35.6278C5.11967 35.4034 4.7049 35.2912 4.2049 35.2912C3.84695 35.2912 3.53729 35.348 3.27592 35.4616C3.01456 35.5724 2.81143 35.7259 2.66655 35.9219C2.5245 36.1151 2.45348 36.3352 2.45348 36.5824C2.45348 36.7898 2.50178 36.9687 2.59837 37.1193C2.6978 37.2699 2.82706 37.3963 2.98615 37.4986C3.14808 37.598 3.32138 37.6818 3.50604 37.75C3.6907 37.8153 3.86825 37.8693 4.03871 37.9119L4.89098 38.1335C5.16939 38.2017 5.4549 38.294 5.74751 38.4105C6.04013 38.527 6.31143 38.6804 6.56143 38.8707C6.81143 39.0611 7.01314 39.2969 7.16655 39.5781C7.3228 39.8594 7.40092 40.196 7.40092 40.5881C7.40092 41.0824 7.27308 41.5213 7.0174 41.9048C6.76456 42.2884 6.39666 42.5909 5.91371 42.8125C5.43359 43.0341 4.85263 43.1449 4.17081 43.1449C3.5174 43.1449 2.95206 43.0412 2.47479 42.8338C1.99751 42.6264 1.62393 42.3324 1.35405 41.9517C1.08416 41.5682 0.935014 41.1136 0.906605 40.5881H2.22763C2.2532 40.9034 2.35547 41.1662 2.53445 41.3764C2.71626 41.5838 2.9478 41.7386 3.22905 41.8409C3.51314 41.9403 3.82422 41.9901 4.16229 41.9901C4.53445 41.9901 4.86541 41.9318 5.15518 41.8153C5.4478 41.696 5.67791 41.5312 5.84553 41.321C6.01314 41.108 6.09695 40.8594 6.09695 40.5753C6.09695 40.3168 6.02308 40.1051 5.87536 39.9403C5.73047 39.7756 5.53303 39.6392 5.28303 39.5312C5.03587 39.4233 4.75604 39.3281 4.44354 39.2457L3.41229 38.9645C2.71342 38.7741 2.15945 38.4943 1.75036 38.125C1.34411 37.7557 1.14098 37.267 1.14098 36.6591C1.14098 36.1562 1.27734 35.7173 1.55007 35.3423C1.8228 34.9673 2.19212 34.6761 2.65803 34.4688C3.12393 34.2585 3.6495 34.1534 4.23473 34.1534C4.82564 34.1534 5.34695 34.2571 5.79865 34.4645C6.2532 34.6719 6.61115 34.9574 6.87251 35.321C7.13388 35.6818 7.27024 36.0966 7.28161 36.5653H6.01172ZM11.9276 36.4545V37.4773H8.35227V36.4545H11.9276ZM9.31108 34.8864H10.5852V41.0781C10.5852 41.3253 10.6222 41.5114 10.696 41.6364C10.7699 41.7585 10.8651 41.8423 10.9815 41.8878C11.1009 41.9304 11.2301 41.9517 11.3693 41.9517C11.4716 41.9517 11.5611 41.9446 11.6378 41.9304C11.7145 41.9162 11.7741 41.9048 11.8168 41.8963L12.0469 42.9489C11.973 42.9773 11.8679 43.0057 11.7315 43.0341C11.5952 43.0653 11.4247 43.0824 11.2202 43.0852C10.8849 43.0909 10.5724 43.0312 10.2827 42.9062C9.9929 42.7812 9.75852 42.5881 9.57955 42.3267C9.40057 42.0653 9.31108 41.7372 9.31108 41.3423V34.8864ZM16.0877 43.1321C15.4428 43.1321 14.8874 42.9943 14.4215 42.7188C13.9585 42.4403 13.6005 42.0497 13.3477 41.5469C13.0977 41.0412 12.9727 40.4489 12.9727 39.7699C12.9727 39.0994 13.0977 38.5085 13.3477 37.9972C13.6005 37.4858 13.9528 37.0866 14.4045 36.7997C14.859 36.5128 15.3903 36.3693 15.9982 36.3693C16.3675 36.3693 16.7255 36.4304 17.0721 36.5526C17.4187 36.6747 17.7298 36.8665 18.0053 37.1278C18.2809 37.3892 18.4982 37.7287 18.6573 38.1463C18.8164 38.5611 18.896 39.0653 18.896 39.6591V40.1108H13.6928V39.1562H17.6474C17.6474 38.821 17.5792 38.5241 17.4428 38.2656C17.3065 38.0043 17.1147 37.7983 16.8675 37.6477C16.6232 37.4972 16.3363 37.4219 16.0067 37.4219C15.6488 37.4219 15.3363 37.5099 15.0692 37.6861C14.805 37.8594 14.6005 38.0866 14.4556 38.3679C14.3136 38.6463 14.2425 38.9489 14.2425 39.2756V40.0213C14.2425 40.4588 14.3192 40.831 14.4727 41.1378C14.6289 41.4446 14.8462 41.679 15.1246 41.8409C15.4031 42 15.7283 42.0795 16.1005 42.0795C16.342 42.0795 16.5621 42.0455 16.761 41.9773C16.9599 41.9062 17.1317 41.8011 17.2766 41.6619C17.4215 41.5227 17.5323 41.3509 17.609 41.1463L18.815 41.3636C18.7184 41.7187 18.5451 42.0298 18.2951 42.2969C18.0479 42.5611 17.7369 42.767 17.3619 42.9148C16.9897 43.0597 16.565 43.1321 16.0877 43.1321ZM20.3097 45.4545V36.4545H21.554V37.5156H21.6605C21.7344 37.3793 21.8409 37.2216 21.9801 37.0426C22.1193 36.8636 22.3125 36.7074 22.5597 36.5739C22.8068 36.4375 23.1335 36.3693 23.5398 36.3693C24.0682 36.3693 24.5398 36.5028 24.9545 36.7699C25.3693 37.0369 25.6946 37.4219 25.9304 37.9247C26.169 38.4276 26.2884 39.0327 26.2884 39.7401C26.2884 40.4474 26.1705 41.054 25.9347 41.5597C25.6989 42.0625 25.375 42.4503 24.9631 42.723C24.5511 42.9929 24.081 43.1278 23.5526 43.1278C23.1548 43.1278 22.8295 43.0611 22.5767 42.9276C22.3267 42.794 22.1307 42.6378 21.9886 42.4588C21.8466 42.2798 21.7372 42.1207 21.6605 41.9815H21.5838V45.4545H20.3097ZM21.5582 39.7273C21.5582 40.1875 21.625 40.5909 21.7585 40.9375C21.892 41.2841 22.0852 41.5554 22.3381 41.7514C22.5909 41.9446 22.9006 42.0412 23.267 42.0412C23.6477 42.0412 23.9659 41.9403 24.2216 41.7386C24.4773 41.5341 24.6705 41.2571 24.8011 40.9077C24.9347 40.5582 25.0014 40.1648 25.0014 39.7273C25.0014 39.2955 24.9361 38.9077 24.8054 38.5639C24.6776 38.2202 24.4844 37.9489 24.2259 37.75C23.9702 37.5511 23.6506 37.4517 23.267 37.4517C22.8977 37.4517 22.5852 37.5469 22.3295 37.7372C22.0767 37.9276 21.8849 38.1932 21.7543 38.5341C21.6236 38.875 21.5582 39.2727 21.5582 39.7273ZM34.1857 34.2727V43H32.8647V35.5938H32.8136L30.7255 36.9574V35.696L32.9031 34.2727H34.1857Z"
        fill="#FF6F00" />
    <path
        d="M94.168 36.5653C94.1225 36.1619 93.935 35.8494 93.6055 35.6278C93.2759 35.4034 92.8612 35.2912 92.3612 35.2912C92.0032 35.2912 91.6935 35.348 91.4322 35.4616C91.1708 35.5724 90.9677 35.7259 90.8228 35.9219C90.6808 36.1151 90.6097 36.3352 90.6097 36.5824C90.6097 36.7898 90.658 36.9687 90.7546 37.1193C90.854 37.2699 90.9833 37.3963 91.1424 37.4986C91.3043 37.598 91.4776 37.6818 91.6623 37.75C91.8469 37.8153 92.0245 37.8693 92.195 37.9119L93.0472 38.1335C93.3256 38.2017 93.6112 38.294 93.9038 38.4105C94.1964 38.527 94.4677 38.6804 94.7177 38.8707C94.9677 39.0611 95.1694 39.2969 95.3228 39.5781C95.479 39.8594 95.5572 40.196 95.5572 40.5881C95.5572 41.0824 95.4293 41.5213 95.1737 41.9048C94.9208 42.2884 94.5529 42.5909 94.07 42.8125C93.5898 43.0341 93.0089 43.1449 92.3271 43.1449C91.6737 43.1449 91.1083 43.0412 90.631 42.8338C90.1538 42.6264 89.7802 42.3324 89.5103 41.9517C89.2404 41.5682 89.0913 41.1136 89.0629 40.5881H90.3839C90.4094 40.9034 90.5117 41.1662 90.6907 41.3764C90.8725 41.5838 91.104 41.7386 91.3853 41.8409C91.6694 41.9403 91.9805 41.9901 92.3185 41.9901C92.6907 41.9901 93.0217 41.9318 93.3114 41.8153C93.604 41.696 93.8342 41.5312 94.0018 41.321C94.1694 41.108 94.2532 40.8594 94.2532 40.5753C94.2532 40.3168 94.1793 40.1051 94.0316 39.9403C93.8867 39.7756 93.6893 39.6392 93.4393 39.5312C93.1921 39.4233 92.9123 39.3281 92.5998 39.2457L91.5685 38.9645C90.8697 38.7741 90.3157 38.4943 89.9066 38.125C89.5004 37.7557 89.2972 37.267 89.2972 36.6591C89.2972 36.1562 89.4336 35.7173 89.7063 35.3423C89.979 34.9673 90.3484 34.6761 90.8143 34.4688C91.2802 34.2585 91.8058 34.1534 92.391 34.1534C92.9819 34.1534 93.5032 34.2571 93.9549 34.4645C94.4094 34.6719 94.7674 34.9574 95.0288 35.321C95.2901 35.6818 95.4265 36.0966 95.4379 36.5653H94.168ZM100.084 36.4545V37.4773H96.5085V36.4545H100.084ZM97.4673 34.8864H98.7415V41.0781C98.7415 41.3253 98.7784 41.5114 98.8523 41.6364C98.9261 41.7585 99.0213 41.8423 99.1378 41.8878C99.2571 41.9304 99.3864 41.9517 99.5256 41.9517C99.6278 41.9517 99.7173 41.9446 99.794 41.9304C99.8707 41.9162 99.9304 41.9048 99.973 41.8963L100.203 42.9489C100.129 42.9773 100.024 43.0057 99.8878 43.0341C99.7514 43.0653 99.581 43.0824 99.3764 43.0852C99.0412 43.0909 98.7287 43.0312 98.4389 42.9062C98.1491 42.7812 97.9148 42.5881 97.7358 42.3267C97.5568 42.0653 97.4673 41.7372 97.4673 41.3423V34.8864ZM104.244 43.1321C103.599 43.1321 103.044 42.9943 102.578 42.7188C102.115 42.4403 101.757 42.0497 101.504 41.5469C101.254 41.0412 101.129 40.4489 101.129 39.7699C101.129 39.0994 101.254 38.5085 101.504 37.9972C101.757 37.4858 102.109 37.0866 102.561 36.7997C103.015 36.5128 103.547 36.3693 104.154 36.3693C104.524 36.3693 104.882 36.4304 105.228 36.5526C105.575 36.6747 105.886 36.8665 106.162 37.1278C106.437 37.3892 106.654 37.7287 106.814 38.1463C106.973 38.5611 107.052 39.0653 107.052 39.6591V40.1108H101.849V39.1562H105.804C105.804 38.821 105.735 38.5241 105.599 38.2656C105.463 38.0043 105.271 37.7983 105.024 37.6477C104.779 37.4972 104.493 37.4219 104.163 37.4219C103.805 37.4219 103.493 37.5099 103.225 37.6861C102.961 37.8594 102.757 38.0866 102.612 38.3679C102.47 38.6463 102.399 38.9489 102.399 39.2756V40.0213C102.399 40.4588 102.475 40.831 102.629 41.1378C102.785 41.4446 103.002 41.679 103.281 41.8409C103.559 42 103.885 42.0795 104.257 42.0795C104.498 42.0795 104.718 42.0455 104.917 41.9773C105.116 41.9062 105.288 41.8011 105.433 41.6619C105.578 41.5227 105.689 41.3509 105.765 41.1463L106.971 41.3636C106.875 41.7187 106.701 42.0298 106.451 42.2969C106.204 42.5611 105.893 42.767 105.518 42.9148C105.146 43.0597 104.721 43.1321 104.244 43.1321ZM108.466 45.4545V36.4545H109.71V37.5156H109.817C109.891 37.3793 109.997 37.2216 110.136 37.0426C110.276 36.8636 110.469 36.7074 110.716 36.5739C110.963 36.4375 111.29 36.3693 111.696 36.3693C112.224 36.3693 112.696 36.5028 113.111 36.7699C113.526 37.0369 113.851 37.4219 114.087 37.9247C114.325 38.4276 114.445 39.0327 114.445 39.7401C114.445 40.4474 114.327 41.054 114.091 41.5597C113.855 42.0625 113.531 42.4503 113.119 42.723C112.707 42.9929 112.237 43.1278 111.709 43.1278C111.311 43.1278 110.986 43.0611 110.733 42.9276C110.483 42.794 110.287 42.6378 110.145 42.4588C110.003 42.2798 109.893 42.1207 109.817 41.9815H109.74V45.4545H108.466ZM109.714 39.7273C109.714 40.1875 109.781 40.5909 109.915 40.9375C110.048 41.2841 110.241 41.5554 110.494 41.7514C110.747 41.9446 111.057 42.0412 111.423 42.0412C111.804 42.0412 112.122 41.9403 112.378 41.7386C112.634 41.5341 112.827 41.2571 112.957 40.9077C113.091 40.5582 113.158 40.1648 113.158 39.7273C113.158 39.2955 113.092 38.9077 112.962 38.5639C112.834 38.2202 112.641 37.9489 112.382 37.75C112.126 37.5511 111.807 37.4517 111.423 37.4517C111.054 37.4517 110.741 37.5469 110.486 37.7372C110.233 37.9276 110.041 38.1932 109.911 38.5341C109.78 38.875 109.714 39.2727 109.714 39.7273ZM119.031 43V42.0455L121.984 38.9858C122.299 38.6534 122.559 38.3622 122.764 38.1122C122.971 37.8594 123.126 37.6193 123.228 37.392C123.331 37.1648 123.382 36.9233 123.382 36.6676C123.382 36.3778 123.314 36.1278 123.177 35.9176C123.041 35.7045 122.855 35.5412 122.619 35.4276C122.383 35.3111 122.118 35.2528 121.822 35.2528C121.51 35.2528 121.237 35.3168 121.004 35.4446C120.771 35.5724 120.592 35.7528 120.467 35.9858C120.342 36.2187 120.279 36.4915 120.279 36.804H119.022C119.022 36.2727 119.145 35.8082 119.389 35.4105C119.633 35.0128 119.968 34.7045 120.395 34.4858C120.821 34.2642 121.305 34.1534 121.848 34.1534C122.396 34.1534 122.879 34.2628 123.297 34.4815C123.717 34.6974 124.045 34.9929 124.281 35.3679C124.517 35.7401 124.635 36.1605 124.635 36.6293C124.635 36.9531 124.574 37.2699 124.451 37.5795C124.332 37.8892 124.123 38.2344 123.825 38.6151C123.527 38.9929 123.112 39.4517 122.581 39.9915L120.846 41.8068V41.8707H124.775V43H119.031Z"
        fill="#9D9D9D" />
    <path
        d="M183.98 36.5653C183.935 36.1619 183.748 35.8494 183.418 35.6278C183.088 35.4034 182.674 35.2912 182.174 35.2912C181.816 35.2912 181.506 35.348 181.245 35.4616C180.983 35.5724 180.78 35.7259 180.635 35.9219C180.493 36.1151 180.422 36.3352 180.422 36.5824C180.422 36.7898 180.471 36.9687 180.567 37.1193C180.667 37.2699 180.796 37.3963 180.955 37.4986C181.117 37.598 181.29 37.6818 181.475 37.75C181.659 37.8153 181.837 37.8693 182.007 37.9119L182.86 38.1335C183.138 38.2017 183.424 38.294 183.716 38.4105C184.009 38.527 184.28 38.6804 184.53 38.8707C184.78 39.0611 184.982 39.2969 185.135 39.5781C185.292 39.8594 185.37 40.196 185.37 40.5881C185.37 41.0824 185.242 41.5213 184.986 41.9048C184.733 42.2884 184.365 42.5909 183.882 42.8125C183.402 43.0341 182.821 43.1449 182.14 43.1449C181.486 43.1449 180.921 43.0412 180.444 42.8338C179.966 42.6264 179.593 42.3324 179.323 41.9517C179.053 41.5682 178.904 41.1136 178.875 40.5881H180.196C180.222 40.9034 180.324 41.1662 180.503 41.3764C180.685 41.5838 180.917 41.7386 181.198 41.8409C181.482 41.9403 181.793 41.9901 182.131 41.9901C182.503 41.9901 182.834 41.9318 183.124 41.8153C183.417 41.696 183.647 41.5312 183.814 41.321C183.982 41.108 184.066 40.8594 184.066 40.5753C184.066 40.3168 183.992 40.1051 183.844 39.9403C183.699 39.7756 183.502 39.6392 183.252 39.5312C183.005 39.4233 182.725 39.3281 182.412 39.2457L181.381 38.9645C180.682 38.7741 180.128 38.4943 179.719 38.125C179.313 37.7557 179.11 37.267 179.11 36.6591C179.11 36.1562 179.246 35.7173 179.519 35.3423C179.792 34.9673 180.161 34.6761 180.627 34.4688C181.093 34.2585 181.618 34.1534 182.203 34.1534C182.794 34.1534 183.316 34.2571 183.767 34.4645C184.222 34.6719 184.58 34.9574 184.841 35.321C185.103 35.6818 185.239 36.0966 185.25 36.5653H183.98ZM189.896 36.4545V37.4773H186.321V36.4545H189.896ZM187.28 34.8864H188.554V41.0781C188.554 41.3253 188.591 41.5114 188.665 41.6364C188.739 41.7585 188.834 41.8423 188.95 41.8878C189.07 41.9304 189.199 41.9517 189.338 41.9517C189.44 41.9517 189.53 41.9446 189.607 41.9304C189.683 41.9162 189.743 41.9048 189.786 41.8963L190.016 42.9489C189.942 42.9773 189.837 43.0057 189.7 43.0341C189.564 43.0653 189.393 43.0824 189.189 43.0852C188.854 43.0909 188.541 43.0312 188.251 42.9062C187.962 42.7812 187.727 42.5881 187.548 42.3267C187.369 42.0653 187.28 41.7372 187.28 41.3423V34.8864ZM194.056 43.1321C193.412 43.1321 192.856 42.9943 192.39 42.7188C191.927 42.4403 191.569 42.0497 191.316 41.5469C191.066 41.0412 190.941 40.4489 190.941 39.7699C190.941 39.0994 191.066 38.5085 191.316 37.9972C191.569 37.4858 191.922 37.0866 192.373 36.7997C192.828 36.5128 193.359 36.3693 193.967 36.3693C194.336 36.3693 194.694 36.4304 195.041 36.5526C195.387 36.6747 195.699 36.8665 195.974 37.1278C196.25 37.3892 196.467 37.7287 196.626 38.1463C196.785 38.5611 196.865 39.0653 196.865 39.6591V40.1108H191.662V39.1562H195.616C195.616 38.821 195.548 38.5241 195.412 38.2656C195.275 38.0043 195.083 37.7983 194.836 37.6477C194.592 37.4972 194.305 37.4219 193.975 37.4219C193.618 37.4219 193.305 37.5099 193.038 37.6861C192.774 37.8594 192.569 38.0866 192.424 38.3679C192.282 38.6463 192.211 38.9489 192.211 39.2756V40.0213C192.211 40.4588 192.288 40.831 192.441 41.1378C192.598 41.4446 192.815 41.679 193.093 41.8409C193.372 42 193.697 42.0795 194.069 42.0795C194.311 42.0795 194.531 42.0455 194.73 41.9773C194.929 41.9062 195.1 41.8011 195.245 41.6619C195.39 41.5227 195.501 41.3509 195.578 41.1463L196.784 41.3636C196.687 41.7187 196.514 42.0298 196.264 42.2969C196.017 42.5611 195.706 42.767 195.331 42.9148C194.958 43.0597 194.534 43.1321 194.056 43.1321ZM198.278 45.4545V36.4545H199.523V37.5156H199.629C199.703 37.3793 199.81 37.2216 199.949 37.0426C200.088 36.8636 200.281 36.7074 200.528 36.5739C200.776 36.4375 201.102 36.3693 201.509 36.3693C202.037 36.3693 202.509 36.5028 202.923 36.7699C203.338 37.0369 203.663 37.4219 203.899 37.9247C204.138 38.4276 204.257 39.0327 204.257 39.7401C204.257 40.4474 204.139 41.054 203.903 41.5597C203.668 42.0625 203.344 42.4503 202.932 42.723C202.52 42.9929 202.05 43.1278 201.521 43.1278C201.124 43.1278 200.798 43.0611 200.545 42.9276C200.295 42.794 200.099 42.6378 199.957 42.4588C199.815 42.2798 199.706 42.1207 199.629 41.9815H199.553V45.4545H198.278ZM199.527 39.7273C199.527 40.1875 199.594 40.5909 199.727 40.9375C199.861 41.2841 200.054 41.5554 200.307 41.7514C200.56 41.9446 200.869 42.0412 201.236 42.0412C201.616 42.0412 201.935 41.9403 202.19 41.7386C202.446 41.5341 202.639 41.2571 202.77 40.9077C202.903 40.5582 202.97 40.1648 202.97 39.7273C202.97 39.2955 202.905 38.9077 202.774 38.5639C202.646 38.2202 202.453 37.9489 202.195 37.75C201.939 37.5511 201.619 37.4517 201.236 37.4517C200.866 37.4517 200.554 37.5469 200.298 37.7372C200.045 37.9276 199.854 38.1932 199.723 38.5341C199.592 38.875 199.527 39.2727 199.527 39.7273ZM211.882 43.1193C211.297 43.1193 210.774 43.0185 210.314 42.8168C209.856 42.6151 209.494 42.3352 209.227 41.9773C208.963 41.6165 208.821 41.1989 208.801 40.7244H210.139C210.156 40.983 210.243 41.2074 210.399 41.3977C210.558 41.5852 210.765 41.7301 211.021 41.8324C211.277 41.9347 211.561 41.9858 211.873 41.9858C212.217 41.9858 212.521 41.9261 212.785 41.8068C213.052 41.6875 213.261 41.5213 213.412 41.3082C213.562 41.0923 213.637 40.8438 213.637 40.5625C213.637 40.2699 213.562 40.0128 213.412 39.7912C213.264 39.5668 213.047 39.3906 212.76 39.2628C212.475 39.1349 212.132 39.071 211.728 39.071H210.991V37.9972H211.728C212.052 37.9972 212.336 37.9389 212.581 37.8224C212.828 37.706 213.021 37.544 213.16 37.3366C213.299 37.1264 213.369 36.8807 213.369 36.5994C213.369 36.3295 213.308 36.0952 213.186 35.8963C213.066 35.6946 212.896 35.5369 212.674 35.4233C212.456 35.3097 212.197 35.2528 211.899 35.2528C211.615 35.2528 211.349 35.3054 211.102 35.4105C210.858 35.5128 210.659 35.6605 210.505 35.8537C210.352 36.044 210.27 36.2727 210.258 36.5398H208.984C208.998 36.0682 209.137 35.6534 209.402 35.2955C209.669 34.9375 210.021 34.6577 210.458 34.456C210.896 34.2543 211.382 34.1534 211.916 34.1534C212.475 34.1534 212.958 34.2628 213.365 34.4815C213.774 34.6974 214.089 34.9858 214.311 35.3466C214.535 35.7074 214.646 36.1023 214.643 36.5312C214.646 37.0199 214.51 37.4347 214.234 37.7756C213.961 38.1165 213.598 38.3452 213.143 38.4616V38.5298C213.723 38.6179 214.172 38.848 214.49 39.2202C214.811 39.5923 214.97 40.054 214.967 40.6051C214.97 41.0852 214.836 41.5156 214.566 41.8963C214.299 42.277 213.934 42.5767 213.471 42.7955C213.008 43.0114 212.478 43.1193 211.882 43.1193Z"
        fill="#9D9D9D" />
    <path
        d="M273.922 36.5653C273.876 36.1619 273.689 35.8494 273.359 35.6278C273.03 35.4034 272.615 35.2912 272.115 35.2912C271.757 35.2912 271.447 35.348 271.186 35.4616C270.925 35.5724 270.722 35.7259 270.577 35.9219C270.435 36.1151 270.364 36.3352 270.364 36.5824C270.364 36.7898 270.412 36.9687 270.509 37.1193C270.608 37.2699 270.737 37.3963 270.896 37.4986C271.058 37.598 271.232 37.6818 271.416 37.75C271.601 37.8153 271.778 37.8693 271.949 37.9119L272.801 38.1335C273.08 38.2017 273.365 38.294 273.658 38.4105C273.95 38.527 274.222 38.6804 274.472 38.8707C274.722 39.0611 274.923 39.2969 275.077 39.5781C275.233 39.8594 275.311 40.196 275.311 40.5881C275.311 41.0824 275.183 41.5213 274.928 41.9048C274.675 42.2884 274.307 42.5909 273.824 42.8125C273.344 43.0341 272.763 43.1449 272.081 43.1449C271.428 43.1449 270.862 43.0412 270.385 42.8338C269.908 42.6264 269.534 42.3324 269.264 41.9517C268.994 41.5682 268.845 41.1136 268.817 40.5881H270.138C270.163 40.9034 270.266 41.1662 270.445 41.3764C270.626 41.5838 270.858 41.7386 271.139 41.8409C271.423 41.9403 271.734 41.9901 272.072 41.9901C272.445 41.9901 272.776 41.9318 273.065 41.8153C273.358 41.696 273.588 41.5312 273.756 41.321C273.923 41.108 274.007 40.8594 274.007 40.5753C274.007 40.3168 273.933 40.1051 273.786 39.9403C273.641 39.7756 273.443 39.6392 273.193 39.5312C272.946 39.4233 272.666 39.3281 272.354 39.2457L271.322 38.9645C270.624 38.7741 270.07 38.4943 269.661 38.125C269.254 37.7557 269.051 37.267 269.051 36.6591C269.051 36.1562 269.188 35.7173 269.46 35.3423C269.733 34.9673 270.102 34.6761 270.568 34.4688C271.034 34.2585 271.56 34.1534 272.145 34.1534C272.736 34.1534 273.257 34.2571 273.709 34.4645C274.163 34.6719 274.521 34.9574 274.783 35.321C275.044 35.6818 275.18 36.0966 275.192 36.5653H273.922ZM279.838 36.4545V37.4773H276.262V36.4545H279.838ZM277.221 34.8864H278.495V41.0781C278.495 41.3253 278.532 41.5114 278.606 41.6364C278.68 41.7585 278.775 41.8423 278.892 41.8878C279.011 41.9304 279.14 41.9517 279.279 41.9517C279.382 41.9517 279.471 41.9446 279.548 41.9304C279.625 41.9162 279.684 41.9048 279.727 41.8963L279.957 42.9489C279.883 42.9773 279.778 43.0057 279.642 43.0341C279.505 43.0653 279.335 43.0824 279.13 43.0852C278.795 43.0909 278.483 43.0312 278.193 42.9062C277.903 42.7812 277.669 42.5881 277.49 42.3267C277.311 42.0653 277.221 41.7372 277.221 41.3423V34.8864ZM283.998 43.1321C283.353 43.1321 282.798 42.9943 282.332 42.7188C281.869 42.4403 281.511 42.0497 281.258 41.5469C281.008 41.0412 280.883 40.4489 280.883 39.7699C280.883 39.0994 281.008 38.5085 281.258 37.9972C281.511 37.4858 281.863 37.0866 282.315 36.7997C282.769 36.5128 283.3 36.3693 283.908 36.3693C284.278 36.3693 284.636 36.4304 284.982 36.5526C285.329 36.6747 285.64 36.8665 285.915 37.1278C286.191 37.3892 286.408 37.7287 286.567 38.1463C286.727 38.5611 286.806 39.0653 286.806 39.6591V40.1108H281.603V39.1562H285.558C285.558 38.821 285.489 38.5241 285.353 38.2656C285.217 38.0043 285.025 37.7983 284.778 37.6477C284.533 37.4972 284.246 37.4219 283.917 37.4219C283.559 37.4219 283.246 37.5099 282.979 37.6861C282.715 37.8594 282.511 38.0866 282.366 38.3679C282.224 38.6463 282.153 38.9489 282.153 39.2756V40.0213C282.153 40.4588 282.229 40.831 282.383 41.1378C282.539 41.4446 282.756 41.679 283.035 41.8409C283.313 42 283.638 42.0795 284.011 42.0795C284.252 42.0795 284.472 42.0455 284.671 41.9773C284.87 41.9062 285.042 41.8011 285.187 41.6619C285.332 41.5227 285.442 41.3509 285.519 41.1463L286.725 41.3636C286.629 41.7187 286.455 42.0298 286.205 42.2969C285.958 42.5611 285.647 42.767 285.272 42.9148C284.9 43.0597 284.475 43.1321 283.998 43.1321ZM288.22 45.4545V36.4545H289.464V37.5156H289.571C289.645 37.3793 289.751 37.2216 289.89 37.0426C290.029 36.8636 290.223 36.7074 290.47 36.5739C290.717 36.4375 291.044 36.3693 291.45 36.3693C291.978 36.3693 292.45 36.5028 292.865 36.7699C293.279 37.0369 293.605 37.4219 293.841 37.9247C294.079 38.4276 294.199 39.0327 294.199 39.7401C294.199 40.4474 294.081 41.054 293.845 41.5597C293.609 42.0625 293.285 42.4503 292.873 42.723C292.461 42.9929 291.991 43.1278 291.463 43.1278C291.065 43.1278 290.74 43.0611 290.487 42.9276C290.237 42.794 290.041 42.6378 289.899 42.4588C289.757 42.2798 289.647 42.1207 289.571 41.9815H289.494V45.4545H288.22ZM289.468 39.7273C289.468 40.1875 289.535 40.5909 289.669 40.9375C289.802 41.2841 289.995 41.5554 290.248 41.7514C290.501 41.9446 290.811 42.0412 291.177 42.0412C291.558 42.0412 291.876 41.9403 292.132 41.7386C292.387 41.5341 292.581 41.2571 292.711 40.9077C292.845 40.5582 292.912 40.1648 292.912 39.7273C292.912 39.2955 292.846 38.9077 292.716 38.5639C292.588 38.2202 292.395 37.9489 292.136 37.75C291.88 37.5511 291.561 37.4517 291.177 37.4517C290.808 37.4517 290.495 37.5469 290.24 37.7372C289.987 37.9276 289.795 38.1932 289.664 38.5341C289.534 38.875 289.468 39.2727 289.468 39.7273ZM298.602 41.2955V40.2301L302.373 34.2727H303.212V35.8409H302.68L299.982 40.1108V40.179H305.151V41.2955H298.602ZM302.739 43V40.9716L302.748 40.4858V34.2727H303.996V43H302.739Z"
        fill="#9D9D9D" />
    <path
        d="M364.127 36.5653C364.081 36.1619 363.894 35.8494 363.564 35.6278C363.235 35.4034 362.82 35.2912 362.32 35.2912C361.962 35.2912 361.653 35.348 361.391 35.4616C361.13 35.5724 360.927 35.7259 360.782 35.9219C360.64 36.1151 360.569 36.3352 360.569 36.5824C360.569 36.7898 360.617 36.9687 360.714 37.1193C360.813 37.2699 360.942 37.3963 361.101 37.4986C361.263 37.598 361.437 37.6818 361.621 37.75C361.806 37.8153 361.983 37.8693 362.154 37.9119L363.006 38.1335C363.285 38.2017 363.57 38.294 363.863 38.4105C364.155 38.527 364.427 38.6804 364.677 38.8707C364.927 39.0611 365.128 39.2969 365.282 39.5781C365.438 39.8594 365.516 40.196 365.516 40.5881C365.516 41.0824 365.388 41.5213 365.133 41.9048C364.88 42.2884 364.512 42.5909 364.029 42.8125C363.549 43.0341 362.968 43.1449 362.286 43.1449C361.633 43.1449 361.067 43.0412 360.59 42.8338C360.113 42.6264 359.739 42.3324 359.469 41.9517C359.199 41.5682 359.05 41.1136 359.022 40.5881H360.343C360.368 40.9034 360.471 41.1662 360.65 41.3764C360.831 41.5838 361.063 41.7386 361.344 41.8409C361.628 41.9403 361.939 41.9901 362.278 41.9901C362.65 41.9901 362.981 41.9318 363.27 41.8153C363.563 41.696 363.793 41.5312 363.961 41.321C364.128 41.108 364.212 40.8594 364.212 40.5753C364.212 40.3168 364.138 40.1051 363.991 39.9403C363.846 39.7756 363.648 39.6392 363.398 39.5312C363.151 39.4233 362.871 39.3281 362.559 39.2457L361.528 38.9645C360.829 38.7741 360.275 38.4943 359.866 38.125C359.459 37.7557 359.256 37.267 359.256 36.6591C359.256 36.1562 359.393 35.7173 359.665 35.3423C359.938 34.9673 360.307 34.6761 360.773 34.4688C361.239 34.2585 361.765 34.1534 362.35 34.1534C362.941 34.1534 363.462 34.2571 363.914 34.4645C364.368 34.6719 364.726 34.9574 364.988 35.321C365.249 35.6818 365.385 36.0966 365.397 36.5653H364.127ZM370.043 36.4545V37.4773H366.468V36.4545H370.043ZM367.426 34.8864H368.7V41.0781C368.7 41.3253 368.737 41.5114 368.811 41.6364C368.885 41.7585 368.98 41.8423 369.097 41.8878C369.216 41.9304 369.345 41.9517 369.485 41.9517C369.587 41.9517 369.676 41.9446 369.753 41.9304C369.83 41.9162 369.889 41.9048 369.932 41.8963L370.162 42.9489C370.088 42.9773 369.983 43.0057 369.847 43.0341C369.71 43.0653 369.54 43.0824 369.335 43.0852C369 43.0909 368.688 43.0312 368.398 42.9062C368.108 42.7812 367.874 42.5881 367.695 42.3267C367.516 42.0653 367.426 41.7372 367.426 41.3423V34.8864ZM374.203 43.1321C373.558 43.1321 373.003 42.9943 372.537 42.7188C372.074 42.4403 371.716 42.0497 371.463 41.5469C371.213 41.0412 371.088 40.4489 371.088 39.7699C371.088 39.0994 371.213 38.5085 371.463 37.9972C371.716 37.4858 372.068 37.0866 372.52 36.7997C372.974 36.5128 373.506 36.3693 374.113 36.3693C374.483 36.3693 374.841 36.4304 375.187 36.5526C375.534 36.6747 375.845 36.8665 376.121 37.1278C376.396 37.3892 376.613 37.7287 376.773 38.1463C376.932 38.5611 377.011 39.0653 377.011 39.6591V40.1108H371.808V39.1562H375.763C375.763 38.821 375.694 38.5241 375.558 38.2656C375.422 38.0043 375.23 37.7983 374.983 37.6477C374.738 37.4972 374.452 37.4219 374.122 37.4219C373.764 37.4219 373.452 37.5099 373.184 37.6861C372.92 37.8594 372.716 38.0866 372.571 38.3679C372.429 38.6463 372.358 38.9489 372.358 39.2756V40.0213C372.358 40.4588 372.434 40.831 372.588 41.1378C372.744 41.4446 372.961 41.679 373.24 41.8409C373.518 42 373.844 42.0795 374.216 42.0795C374.457 42.0795 374.677 42.0455 374.876 41.9773C375.075 41.9062 375.247 41.8011 375.392 41.6619C375.537 41.5227 375.648 41.3509 375.724 41.1463L376.93 41.3636C376.834 41.7187 376.66 42.0298 376.41 42.2969C376.163 42.5611 375.852 42.767 375.477 42.9148C375.105 43.0597 374.68 43.1321 374.203 43.1321ZM378.425 45.4545V36.4545H379.669V37.5156H379.776C379.85 37.3793 379.956 37.2216 380.095 37.0426C380.235 36.8636 380.428 36.7074 380.675 36.5739C380.922 36.4375 381.249 36.3693 381.655 36.3693C382.183 36.3693 382.655 36.5028 383.07 36.7699C383.485 37.0369 383.81 37.4219 384.046 37.9247C384.284 38.4276 384.404 39.0327 384.404 39.7401C384.404 40.4474 384.286 41.054 384.05 41.5597C383.814 42.0625 383.49 42.4503 383.078 42.723C382.666 42.9929 382.196 43.1278 381.668 43.1278C381.27 43.1278 380.945 43.0611 380.692 42.9276C380.442 42.794 380.246 42.6378 380.104 42.4588C379.962 42.2798 379.852 42.1207 379.776 41.9815H379.699V45.4545H378.425ZM379.673 39.7273C379.673 40.1875 379.74 40.5909 379.874 40.9375C380.007 41.2841 380.2 41.5554 380.453 41.7514C380.706 41.9446 381.016 42.0412 381.382 42.0412C381.763 42.0412 382.081 41.9403 382.337 41.7386C382.593 41.5341 382.786 41.2571 382.916 40.9077C383.05 40.5582 383.117 40.1648 383.117 39.7273C383.117 39.2955 383.051 38.9077 382.921 38.5639C382.793 38.2202 382.6 37.9489 382.341 37.75C382.085 37.5511 381.766 37.4517 381.382 37.4517C381.013 37.4517 380.7 37.5469 380.445 37.7372C380.192 37.9276 380 38.1932 379.869 38.5341C379.739 38.875 379.673 39.2727 379.673 39.7273ZM391.871 43.1193C391.336 43.1193 390.856 43.017 390.43 42.8125C390.007 42.6051 389.669 42.321 389.416 41.9602C389.163 41.5994 389.028 41.1875 389.011 40.7244H390.29C390.321 41.0994 390.487 41.4077 390.788 41.6491C391.089 41.8906 391.45 42.0114 391.871 42.0114C392.206 42.0114 392.503 41.9347 392.761 41.7812C393.023 41.625 393.227 41.4105 393.375 41.1378C393.525 40.8651 393.601 40.554 393.601 40.2045C393.601 39.8494 393.524 39.5327 393.371 39.2543C393.217 38.9759 393.006 38.7571 392.736 38.598C392.469 38.4389 392.162 38.358 391.815 38.3551C391.551 38.3551 391.285 38.4006 391.018 38.4915C390.751 38.5824 390.535 38.7017 390.371 38.8494L389.165 38.6705L389.655 34.2727H394.453V35.402H390.75L390.473 37.8438H390.524C390.694 37.679 390.92 37.5412 391.202 37.4304C391.486 37.3196 391.79 37.2642 392.113 37.2642C392.645 37.2642 393.118 37.3906 393.532 37.6435C393.95 37.8963 394.278 38.2415 394.517 38.679C394.758 39.1136 394.878 39.6136 394.875 40.179C394.878 40.7443 394.75 41.2486 394.491 41.6918C394.236 42.1349 393.881 42.4844 393.426 42.7401C392.974 42.9929 392.456 43.1193 391.871 43.1193Z"
        fill="#9D9D9D" />
    <defs>
        <clipPath id="clip0_1_28319">
            <rect width="24" height="24" fill="white" transform="translate(6)" />
        </clipPath>
        <clipPath id="clip1_1_28319">
            <rect width="81" height="22" fill="white" transform="translate(34 1)" />
        </clipPath>
        <clipPath id="clip2_1_28319">
            <rect width="24" height="24" fill="white" transform="translate(95)" />
        </clipPath>
        <clipPath id="clip3_1_28319">
            <rect width="81" height="22" fill="white" transform="translate(123 1)" />
        </clipPath>
        <clipPath id="clip4_1_28319">
            <rect width="24" height="24" fill="white" transform="translate(184)" />
        </clipPath>
        <clipPath id="clip5_1_28319">
            <rect width="81" height="22" fill="white" transform="translate(212 1)" />
        </clipPath>
        <clipPath id="clip6_1_28319">
            <rect width="24" height="24" fill="white" transform="translate(274)" />
        </clipPath>
        <clipPath id="clip7_1_28319">
            <rect width="81" height="22" fill="white" transform="translate(302 1)" />
        </clipPath>
        <clipPath id="clip8_1_28319">
            <rect width="24" height="24" fill="white" transform="translate(364)" />
        </clipPath>
    </defs>
</svg>
