<svg width="159" height="134" viewBox="0 0 159 134" fill="none" xmlns="http://www.w3.org/2000/svg">
    <rect x="30" y="0.5" width="99" height="99" rx="49.5" fill="#F2F2F2" />
    <rect x="30" y="0.5" width="99" height="99" rx="49.5" stroke="#DFDFDF" />
    <g clip-path="url(#clip0_1_28450)">
        <path
            d="M90.5 57C90.5 57.5304 90.2893 58.0391 89.9142 58.4142C89.5391 58.7893 89.0304 59 88.5 59H70.5C69.9696 59 69.4609 58.7893 69.0858 58.4142C68.7107 58.0391 68.5 57.5304 68.5 57V46C68.5 45.4696 68.7107 44.9609 69.0858 44.5858C69.4609 44.2107 69.9696 44 70.5 44H74.5L76.5 41H82.5L84.5 44H88.5C89.0304 44 89.5391 44.2107 89.9142 44.5858C90.2893 44.9609 90.5 45.4696 90.5 46V57Z"
            stroke="#1E1E1E" stroke-width="2.5" stroke-linecap="round" stroke-linejoin="round" />
        <path
            d="M79.5 55C81.7091 55 83.5 53.2091 83.5 51C83.5 48.7909 81.7091 47 79.5 47C77.2909 47 75.5 48.7909 75.5 51C75.5 53.2091 77.2909 55 79.5 55Z"
            stroke="#1E1E1E" stroke-width="2.5" stroke-linecap="round" stroke-linejoin="round" />
    </g>
    <path
        d="M8.76136 117.364H10.5227V125.017C10.5227 125.831 10.3314 126.553 9.94886 127.182C9.56629 127.807 9.02841 128.299 8.33523 128.659C7.64205 129.015 6.82955 129.193 5.89773 129.193C4.9697 129.193 4.15909 129.015 3.46591 128.659C2.77273 128.299 2.23485 127.807 1.85227 127.182C1.4697 126.553 1.27841 125.831 1.27841 125.017V117.364H3.03409V124.875C3.03409 125.402 3.14962 125.869 3.38068 126.278C3.61553 126.688 3.94697 127.009 4.375 127.244C4.80303 127.475 5.31061 127.591 5.89773 127.591C6.48864 127.591 6.99811 127.475 7.42614 127.244C7.85795 127.009 8.1875 126.688 8.41477 126.278C8.64583 125.869 8.76136 125.402 8.76136 124.875V117.364ZM12.9389 132.273V120.273H14.598V121.688H14.7401C14.8385 121.506 14.9806 121.295 15.1662 121.057C15.3518 120.818 15.6094 120.61 15.9389 120.432C16.2685 120.25 16.7041 120.159 17.2457 120.159C17.9503 120.159 18.5791 120.337 19.1321 120.693C19.6851 121.049 20.1188 121.562 20.4332 122.233C20.7514 122.903 20.9105 123.71 20.9105 124.653C20.9105 125.597 20.7533 126.405 20.4389 127.08C20.1245 127.75 19.6927 128.267 19.1435 128.631C18.5942 128.991 17.9673 129.17 17.2628 129.17C16.7325 129.17 16.2988 129.081 15.9616 128.903C15.6283 128.725 15.367 128.517 15.1776 128.278C14.9882 128.04 14.8423 127.828 14.7401 127.642H14.6378V132.273H12.9389ZM14.6037 124.636C14.6037 125.25 14.6927 125.788 14.8707 126.25C15.0488 126.712 15.3063 127.074 15.6435 127.335C15.9806 127.593 16.3935 127.722 16.8821 127.722C17.3897 127.722 17.8139 127.587 18.1548 127.318C18.4957 127.045 18.7533 126.676 18.9276 126.21C19.1056 125.744 19.1946 125.22 19.1946 124.636C19.1946 124.061 19.1075 123.544 18.9332 123.085C18.7628 122.627 18.5052 122.265 18.1605 122C17.8196 121.735 17.3935 121.602 16.8821 121.602C16.3897 121.602 15.973 121.729 15.6321 121.983C15.295 122.237 15.0393 122.591 14.8651 123.045C14.6908 123.5 14.6037 124.03 14.6037 124.636ZM24.5128 117.364V129H22.8139V117.364H24.5128ZM30.4744 129.176C29.6563 129.176 28.9422 128.989 28.3324 128.614C27.7225 128.239 27.2491 127.714 26.9119 127.04C26.5748 126.366 26.4062 125.578 26.4062 124.676C26.4062 123.771 26.5748 122.979 26.9119 122.301C27.2491 121.623 27.7225 121.097 28.3324 120.722C28.9422 120.347 29.6563 120.159 30.4744 120.159C31.2926 120.159 32.0066 120.347 32.6165 120.722C33.2263 121.097 33.6998 121.623 34.0369 122.301C34.3741 122.979 34.5426 123.771 34.5426 124.676C34.5426 125.578 34.3741 126.366 34.0369 127.04C33.6998 127.714 33.2263 128.239 32.6165 128.614C32.0066 128.989 31.2926 129.176 30.4744 129.176ZM30.4801 127.75C31.0104 127.75 31.4498 127.61 31.7983 127.33C32.1468 127.049 32.4044 126.676 32.571 126.21C32.7415 125.744 32.8267 125.231 32.8267 124.67C32.8267 124.114 32.7415 123.602 32.571 123.136C32.4044 122.667 32.1468 122.29 31.7983 122.006C31.4498 121.722 31.0104 121.58 30.4801 121.58C29.946 121.58 29.5028 121.722 29.1506 122.006C28.8021 122.29 28.5426 122.667 28.3722 123.136C28.2055 123.602 28.1222 124.114 28.1222 124.67C28.1222 125.231 28.2055 125.744 28.3722 126.21C28.5426 126.676 28.8021 127.049 29.1506 127.33C29.5028 127.61 29.946 127.75 30.4801 127.75ZM38.9787 129.193C38.4257 129.193 37.9257 129.091 37.4787 128.886C37.0317 128.678 36.6776 128.377 36.4162 127.983C36.1586 127.589 36.0298 127.106 36.0298 126.534C36.0298 126.042 36.1245 125.636 36.3139 125.318C36.5033 125 36.759 124.748 37.081 124.562C37.4029 124.377 37.7628 124.237 38.1605 124.142C38.5582 124.047 38.9635 123.975 39.3764 123.926C39.8991 123.866 40.3234 123.816 40.6491 123.778C40.9749 123.737 41.2116 123.67 41.3594 123.58C41.5071 123.489 41.581 123.341 41.581 123.136V123.097C41.581 122.6 41.4408 122.216 41.1605 121.943C40.884 121.67 40.4711 121.534 39.9219 121.534C39.3499 121.534 38.8991 121.661 38.5696 121.915C38.2438 122.165 38.0185 122.443 37.8935 122.75L36.2969 122.386C36.4863 121.856 36.7628 121.428 37.1264 121.102C37.4938 120.773 37.9162 120.534 38.3935 120.386C38.8707 120.235 39.3726 120.159 39.8991 120.159C40.2476 120.159 40.617 120.201 41.0071 120.284C41.401 120.364 41.7685 120.511 42.1094 120.727C42.4541 120.943 42.7363 121.252 42.956 121.653C43.1757 122.051 43.2855 122.568 43.2855 123.205V129H41.6264V127.807H41.5582C41.4484 128.027 41.2836 128.242 41.0639 128.455C40.8442 128.667 40.562 128.843 40.2173 128.983C39.8726 129.123 39.4598 129.193 38.9787 129.193ZM39.348 127.83C39.8177 127.83 40.2192 127.737 40.5526 127.551C40.8897 127.366 41.1454 127.123 41.3196 126.824C41.4976 126.521 41.5866 126.197 41.5866 125.852V124.727C41.526 124.788 41.4086 124.845 41.2344 124.898C41.0639 124.947 40.8688 124.991 40.6491 125.028C40.4295 125.062 40.2154 125.095 40.0071 125.125C39.7988 125.152 39.6245 125.174 39.4844 125.193C39.1548 125.235 38.8537 125.305 38.581 125.403C38.312 125.502 38.0961 125.644 37.9332 125.83C37.7741 126.011 37.6946 126.254 37.6946 126.557C37.6946 126.977 37.8499 127.295 38.1605 127.511C38.4711 127.723 38.867 127.83 39.348 127.83ZM48.8153 129.17C48.1108 129.17 47.482 128.991 46.929 128.631C46.3797 128.267 45.9479 127.75 45.6335 127.08C45.3229 126.405 45.1676 125.597 45.1676 124.653C45.1676 123.71 45.3248 122.903 45.6392 122.233C45.9574 121.562 46.393 121.049 46.946 120.693C47.4991 120.337 48.1259 120.159 48.8267 120.159C49.3684 120.159 49.804 120.25 50.1335 120.432C50.4669 120.61 50.7244 120.818 50.9062 121.057C51.0919 121.295 51.2358 121.506 51.3381 121.688H51.4403V117.364H53.1392V129H51.4801V127.642H51.3381C51.2358 127.828 51.0881 128.04 50.8949 128.278C50.7055 128.517 50.4441 128.725 50.1108 128.903C49.7775 129.081 49.3456 129.17 48.8153 129.17ZM49.1903 127.722C49.679 127.722 50.0919 127.593 50.429 127.335C50.7699 127.074 51.0275 126.712 51.2017 126.25C51.3797 125.788 51.4688 125.25 51.4688 124.636C51.4688 124.03 51.3816 123.5 51.2074 123.045C51.0331 122.591 50.7775 122.237 50.4403 121.983C50.1032 121.729 49.6866 121.602 49.1903 121.602C48.679 121.602 48.2528 121.735 47.9119 122C47.571 122.265 47.3134 122.627 47.1392 123.085C46.9688 123.544 46.8835 124.061 46.8835 124.636C46.8835 125.22 46.9706 125.744 47.1449 126.21C47.3191 126.676 47.5767 127.045 47.9176 127.318C48.2623 127.587 48.6866 127.722 49.1903 127.722ZM59.9347 129V117.364H64.0824C64.9877 117.364 65.7377 117.528 66.3324 117.858C66.9271 118.187 67.3722 118.638 67.6676 119.21C67.9631 119.778 68.1108 120.419 68.1108 121.131C68.1108 121.847 67.9612 122.491 67.6619 123.062C67.3665 123.631 66.9195 124.081 66.321 124.415C65.7263 124.744 64.9782 124.909 64.0767 124.909H61.2244V123.42H63.9176C64.4896 123.42 64.9536 123.322 65.3097 123.125C65.6657 122.924 65.9271 122.652 66.0938 122.307C66.2604 121.962 66.3438 121.57 66.3438 121.131C66.3438 120.691 66.2604 120.301 66.0938 119.96C65.9271 119.619 65.6638 119.352 65.304 119.159C64.9479 118.966 64.4782 118.869 63.8949 118.869H61.6903V129H59.9347ZM70.0327 129V120.273H71.6747V121.659H71.7656C71.9247 121.189 72.205 120.82 72.6065 120.551C73.0118 120.278 73.4702 120.142 73.9815 120.142C74.0876 120.142 74.2126 120.146 74.3565 120.153C74.5043 120.161 74.6198 120.17 74.7031 120.182V121.807C74.6349 121.788 74.5137 121.767 74.3395 121.744C74.1652 121.718 73.991 121.705 73.8168 121.705C73.4152 121.705 73.0573 121.79 72.7429 121.96C72.4323 122.127 72.1861 122.36 72.0043 122.659C71.8224 122.955 71.7315 123.292 71.7315 123.67V129H70.0327ZM79.5369 129.176C78.7188 129.176 78.0047 128.989 77.3949 128.614C76.785 128.239 76.3116 127.714 75.9744 127.04C75.6373 126.366 75.4688 125.578 75.4688 124.676C75.4688 123.771 75.6373 122.979 75.9744 122.301C76.3116 121.623 76.785 121.097 77.3949 120.722C78.0047 120.347 78.7188 120.159 79.5369 120.159C80.3551 120.159 81.0691 120.347 81.679 120.722C82.2888 121.097 82.7623 121.623 83.0994 122.301C83.4366 122.979 83.6051 123.771 83.6051 124.676C83.6051 125.578 83.4366 126.366 83.0994 127.04C82.7623 127.714 82.2888 128.239 81.679 128.614C81.0691 128.989 80.3551 129.176 79.5369 129.176ZM79.5426 127.75C80.0729 127.75 80.5123 127.61 80.8608 127.33C81.2093 127.049 81.4669 126.676 81.6335 126.21C81.804 125.744 81.8892 125.231 81.8892 124.67C81.8892 124.114 81.804 123.602 81.6335 123.136C81.4669 122.667 81.2093 122.29 80.8608 122.006C80.5123 121.722 80.0729 121.58 79.5426 121.58C79.0085 121.58 78.5653 121.722 78.2131 122.006C77.8646 122.29 77.6051 122.667 77.4347 123.136C77.268 123.602 77.1847 124.114 77.1847 124.67C77.1847 125.231 77.268 125.744 77.4347 126.21C77.6051 126.676 77.8646 127.049 78.2131 127.33C78.5653 127.61 79.0085 127.75 79.5426 127.75ZM89.6548 120.273V121.636H84.723V120.273H89.6548ZM86.0753 129V119.261C86.0753 118.716 86.1946 118.263 86.4332 117.903C86.6719 117.54 86.9882 117.269 87.3821 117.091C87.776 116.909 88.2041 116.818 88.6662 116.818C89.0071 116.818 89.2988 116.847 89.5412 116.903C89.7836 116.956 89.9635 117.006 90.081 117.051L89.6832 118.426C89.6037 118.403 89.5014 118.377 89.3764 118.347C89.2514 118.312 89.0999 118.295 88.9219 118.295C88.509 118.295 88.2135 118.398 88.0355 118.602C87.8613 118.807 87.7741 119.102 87.7741 119.489V129H86.0753ZM91.4077 129V120.273H93.1065V129H91.4077ZM92.2656 118.926C91.9702 118.926 91.7164 118.828 91.5043 118.631C91.2959 118.43 91.1918 118.191 91.1918 117.915C91.1918 117.634 91.2959 117.396 91.5043 117.199C91.7164 116.998 91.9702 116.898 92.2656 116.898C92.5611 116.898 92.813 116.998 93.0213 117.199C93.2334 117.396 93.3395 117.634 93.3395 117.915C93.3395 118.191 93.2334 118.43 93.0213 118.631C92.813 118.828 92.5611 118.926 92.2656 118.926ZM97.0909 117.364V129H95.392V117.364H97.0909ZM103.138 129.176C102.278 129.176 101.537 128.992 100.916 128.625C100.299 128.254 99.8215 127.733 99.4844 127.062C99.151 126.388 98.9844 125.598 98.9844 124.693C98.9844 123.799 99.151 123.011 99.4844 122.33C99.8215 121.648 100.291 121.116 100.893 120.733C101.5 120.35 102.208 120.159 103.018 120.159C103.511 120.159 103.988 120.241 104.45 120.403C104.912 120.566 105.327 120.822 105.695 121.17C106.062 121.519 106.352 121.972 106.564 122.528C106.776 123.081 106.882 123.754 106.882 124.545V125.148H99.9446V123.875H105.217C105.217 123.428 105.126 123.032 104.945 122.688C104.763 122.339 104.507 122.064 104.178 121.864C103.852 121.663 103.469 121.562 103.03 121.562C102.553 121.562 102.136 121.68 101.78 121.915C101.428 122.146 101.155 122.449 100.962 122.824C100.772 123.195 100.678 123.598 100.678 124.034V125.028C100.678 125.612 100.78 126.108 100.984 126.517C101.193 126.926 101.482 127.239 101.854 127.455C102.225 127.667 102.659 127.773 103.155 127.773C103.477 127.773 103.77 127.727 104.036 127.636C104.301 127.542 104.53 127.402 104.723 127.216C104.916 127.03 105.064 126.801 105.166 126.528L106.774 126.818C106.645 127.292 106.414 127.706 106.081 128.062C105.751 128.415 105.337 128.689 104.837 128.886C104.34 129.08 103.774 129.176 103.138 129.176ZM114.893 117.364V129H113.138V117.364H114.893ZM117.314 129V120.273H118.945V121.693H119.053C119.234 121.212 119.532 120.837 119.945 120.568C120.357 120.295 120.852 120.159 121.428 120.159C122.011 120.159 122.5 120.295 122.893 120.568C123.291 120.841 123.585 121.216 123.774 121.693H123.865C124.073 121.227 124.405 120.856 124.859 120.58C125.314 120.299 125.856 120.159 126.484 120.159C127.276 120.159 127.922 120.407 128.422 120.903C128.926 121.4 129.178 122.148 129.178 123.148V129H127.479V123.307C127.479 122.716 127.318 122.288 126.996 122.023C126.674 121.758 126.289 121.625 125.842 121.625C125.289 121.625 124.859 121.795 124.553 122.136C124.246 122.473 124.092 122.907 124.092 123.438V129H122.399V123.199C122.399 122.725 122.251 122.345 121.956 122.057C121.661 121.769 121.276 121.625 120.803 121.625C120.481 121.625 120.183 121.71 119.911 121.881C119.642 122.047 119.424 122.28 119.257 122.58C119.094 122.879 119.013 123.225 119.013 123.619V129H117.314ZM133.994 129.193C133.441 129.193 132.941 129.091 132.494 128.886C132.047 128.678 131.693 128.377 131.432 127.983C131.174 127.589 131.045 127.106 131.045 126.534C131.045 126.042 131.14 125.636 131.33 125.318C131.519 125 131.775 124.748 132.097 124.562C132.419 124.377 132.778 124.237 133.176 124.142C133.574 124.047 133.979 123.975 134.392 123.926C134.915 123.866 135.339 123.816 135.665 123.778C135.991 123.737 136.227 123.67 136.375 123.58C136.523 123.489 136.597 123.341 136.597 123.136V123.097C136.597 122.6 136.456 122.216 136.176 121.943C135.9 121.67 135.487 121.534 134.938 121.534C134.366 121.534 133.915 121.661 133.585 121.915C133.259 122.165 133.034 122.443 132.909 122.75L131.312 122.386C131.502 121.856 131.778 121.428 132.142 121.102C132.509 120.773 132.932 120.534 133.409 120.386C133.886 120.235 134.388 120.159 134.915 120.159C135.263 120.159 135.633 120.201 136.023 120.284C136.417 120.364 136.784 120.511 137.125 120.727C137.47 120.943 137.752 121.252 137.972 121.653C138.191 122.051 138.301 122.568 138.301 123.205V129H136.642V127.807H136.574C136.464 128.027 136.299 128.242 136.08 128.455C135.86 128.667 135.578 128.843 135.233 128.983C134.888 129.123 134.475 129.193 133.994 129.193ZM134.364 127.83C134.833 127.83 135.235 127.737 135.568 127.551C135.905 127.366 136.161 127.123 136.335 126.824C136.513 126.521 136.602 126.197 136.602 125.852V124.727C136.542 124.788 136.424 124.845 136.25 124.898C136.08 124.947 135.884 124.991 135.665 125.028C135.445 125.062 135.231 125.095 135.023 125.125C134.814 125.152 134.64 125.174 134.5 125.193C134.17 125.235 133.869 125.305 133.597 125.403C133.328 125.502 133.112 125.644 132.949 125.83C132.79 126.011 132.71 126.254 132.71 126.557C132.71 126.977 132.866 127.295 133.176 127.511C133.487 127.723 133.883 127.83 134.364 127.83ZM144.223 132.455C143.53 132.455 142.933 132.364 142.433 132.182C141.937 132 141.532 131.759 141.217 131.46C140.903 131.161 140.668 130.833 140.513 130.477L141.973 129.875C142.075 130.042 142.212 130.218 142.382 130.403C142.556 130.593 142.791 130.754 143.087 130.886C143.386 131.019 143.77 131.085 144.24 131.085C144.884 131.085 145.416 130.928 145.837 130.614C146.257 130.303 146.467 129.807 146.467 129.125V127.409H146.359C146.257 127.595 146.109 127.801 145.916 128.028C145.727 128.256 145.465 128.453 145.132 128.619C144.799 128.786 144.365 128.869 143.831 128.869C143.142 128.869 142.52 128.708 141.967 128.386C141.418 128.061 140.982 127.581 140.661 126.949C140.342 126.312 140.183 125.53 140.183 124.602C140.183 123.674 140.34 122.879 140.655 122.216C140.973 121.553 141.409 121.045 141.962 120.693C142.515 120.337 143.142 120.159 143.842 120.159C144.384 120.159 144.821 120.25 145.155 120.432C145.488 120.61 145.748 120.818 145.933 121.057C146.123 121.295 146.268 121.506 146.371 121.688H146.496V120.273H148.161V129.193C148.161 129.943 147.986 130.559 147.638 131.04C147.289 131.521 146.818 131.877 146.223 132.108C145.632 132.339 144.965 132.455 144.223 132.455ZM144.206 127.46C144.695 127.46 145.107 127.347 145.445 127.119C145.786 126.888 146.043 126.559 146.217 126.131C146.395 125.699 146.484 125.182 146.484 124.58C146.484 123.992 146.397 123.475 146.223 123.028C146.049 122.581 145.793 122.233 145.456 121.983C145.119 121.729 144.702 121.602 144.206 121.602C143.695 121.602 143.268 121.735 142.928 122C142.587 122.261 142.329 122.617 142.155 123.068C141.984 123.519 141.899 124.023 141.899 124.58C141.899 125.152 141.986 125.653 142.161 126.085C142.335 126.517 142.592 126.854 142.933 127.097C143.278 127.339 143.702 127.46 144.206 127.46ZM154.2 129.176C153.34 129.176 152.6 128.992 151.979 128.625C151.361 128.254 150.884 127.733 150.547 127.062C150.214 126.388 150.047 125.598 150.047 124.693C150.047 123.799 150.214 123.011 150.547 122.33C150.884 121.648 151.354 121.116 151.956 120.733C152.562 120.35 153.27 120.159 154.081 120.159C154.573 120.159 155.051 120.241 155.513 120.403C155.975 120.566 156.39 120.822 156.757 121.17C157.125 121.519 157.414 121.972 157.626 122.528C157.839 123.081 157.945 123.754 157.945 124.545V125.148H151.007V123.875H156.28C156.28 123.428 156.189 123.032 156.007 122.688C155.825 122.339 155.57 122.064 155.24 121.864C154.914 121.663 154.532 121.562 154.092 121.562C153.615 121.562 153.198 121.68 152.842 121.915C152.49 122.146 152.217 122.449 152.024 122.824C151.835 123.195 151.74 123.598 151.74 124.034V125.028C151.74 125.612 151.842 126.108 152.047 126.517C152.255 126.926 152.545 127.239 152.916 127.455C153.287 127.667 153.721 127.773 154.217 127.773C154.539 127.773 154.833 127.727 155.098 127.636C155.363 127.542 155.592 127.402 155.786 127.216C155.979 127.03 156.126 126.801 156.229 126.528L157.837 126.818C157.708 127.292 157.477 127.706 157.143 128.062C156.814 128.415 156.399 128.689 155.899 128.886C155.403 129.08 154.837 129.176 154.2 129.176Z"
        fill="#002147" />
    <defs>
        <clipPath id="clip0_1_28450">
            <rect width="24" height="24" fill="white" transform="translate(67.5 38)" />
        </clipPath>
    </defs>
</svg>
