<svg width="143" height="143" viewBox="0 0 143 143" fill="none" xmlns="http://www.w3.org/2000/svg">
    <g clip-path="url(#clip0_1_28304)">
        <path
            d="M38.5181 -0.113548C39.4906 -0.112212 40.4631 -0.115732 41.4357 -0.11858C43.3352 -0.123355 45.2347 -0.12362 47.1343 -0.122151C48.6803 -0.121017 50.2262 -0.121432 51.7722 -0.122919C51.9933 -0.123128 52.2143 -0.123337 52.442 -0.123552C52.8912 -0.12398 53.3404 -0.12441 53.7896 -0.124841C57.9913 -0.128665 62.1929 -0.127162 66.3946 -0.123952C70.2267 -0.121179 74.0587 -0.12479 77.8908 -0.131474C81.8386 -0.138308 85.7864 -0.140965 89.7342 -0.139112C91.9454 -0.138141 94.1565 -0.13873 96.3677 -0.143651C98.2502 -0.147789 100.133 -0.147906 102.015 -0.143073C102.973 -0.140716 103.931 -0.140044 104.889 -0.144372C115.609 -0.182669 124.478 2.58467 132.386 10.0548C132.701 10.3421 132.701 10.3421 133.021 10.6352C136.917 14.3259 139.727 19.2968 141.446 24.3513C141.508 24.533 141.57 24.7147 141.635 24.902C141.834 25.5343 141.999 26.1697 142.162 26.8126C142.232 27.0881 142.303 27.3637 142.375 27.6476C143.172 31.2523 143.122 34.8411 143.113 38.5185C143.112 39.4911 143.115 40.4636 143.118 41.4361C143.123 43.3357 143.123 45.2352 143.122 47.1347C143.121 48.6807 143.121 50.2267 143.123 51.7727C143.123 51.9937 143.123 52.2147 143.123 52.4425C143.124 52.8917 143.124 53.3408 143.125 53.79C143.128 57.9917 143.127 62.1934 143.124 66.3951C143.121 70.2271 143.124 74.0592 143.131 77.8913C143.138 81.8391 143.141 85.7868 143.139 89.7347C143.138 91.9458 143.138 94.157 143.143 96.3681C143.147 98.2507 143.148 100.133 143.143 102.016C143.14 102.974 143.14 103.931 143.144 104.889C143.183 115.693 140.278 125.045 132.578 132.893C128.64 136.751 123.868 139.668 118.648 141.446C118.376 141.54 118.376 141.54 118.098 141.635C117.465 141.834 116.83 141.999 116.187 142.162C115.774 142.268 115.774 142.268 115.352 142.376C111.747 143.173 108.159 143.122 104.481 143.114C103.509 143.112 102.536 143.116 101.564 143.119C99.664 143.124 97.7645 143.124 95.865 143.122C94.319 143.121 92.773 143.122 91.227 143.123C91.006 143.123 90.785 143.123 90.5572 143.124C90.108 143.124 89.6589 143.125 89.2097 143.125C85.008 143.129 80.8063 143.127 76.6046 143.124C72.7726 143.121 68.9405 143.125 65.1085 143.132C61.1606 143.138 57.2129 143.141 53.265 143.139C51.0539 143.138 48.8427 143.139 46.6316 143.144C44.749 143.148 42.8665 143.148 40.9839 143.143C40.0261 143.141 39.0683 143.14 38.1105 143.145C27.2058 143.183 17.9094 140.209 9.98449 132.474C3.67438 126.055 -0.101114 117.315 -0.0750669 108.3C-0.0763324 107.972 -0.0775986 107.645 -0.0789025 107.308C-0.081804 106.409 -0.0822501 105.51 -0.0815874 104.611C-0.0814725 103.638 -0.0845636 102.665 -0.0872043 101.691C-0.0918256 99.7879 -0.0933784 97.8845 -0.0936907 95.9811C-0.0939571 94.4319 -0.0951088 92.8827 -0.0968742 91.3335C-0.101789 86.9304 -0.104373 82.5272 -0.103953 78.1241C-0.103931 77.8872 -0.103908 77.6503 -0.103885 77.4062C-0.103862 77.169 -0.10384 76.9318 -0.103817 76.6875C-0.10359 72.8481 -0.10893 69.0088 -0.116811 65.1694C-0.12486 61.2166 -0.128692 57.2638 -0.128211 53.3109C-0.128026 51.096 -0.129522 48.8811 -0.135571 46.6662C-0.140691 44.7795 -0.141846 42.8929 -0.138081 41.0062C-0.136274 40.0461 -0.13616 39.0861 -0.141068 38.126C-0.185803 27.3992 2.57927 18.5266 10.0543 10.6134C10.2458 10.4038 10.4374 10.1943 10.6347 9.9784C14.3255 6.08259 19.2963 3.27252 24.3508 1.55367C24.5325 1.49147 24.7143 1.42928 24.9015 1.3652C25.5339 1.16567 26.1692 1.00092 26.8121 0.83797C27.0877 0.767508 27.3632 0.697046 27.6471 0.624449C31.2519 -0.172683 34.8406 -0.122079 38.5181 -0.113548Z"
            fill="#FF6F00" />
        <path
            d="M70.9591 17.7878C71.2383 17.7883 71.2383 17.7883 71.5231 17.7888C74.6885 17.7996 77.7715 18.0488 80.8908 18.5997C81.5379 18.7101 82.185 18.8006 82.8358 18.8865C85.4482 19.2568 87.2333 19.9232 88.9356 21.9893C89.712 23.1552 89.9083 24.3389 89.6546 25.6954C88.9891 27.7143 87.7862 28.8298 85.919 29.8325C84.1639 30.4075 82.8048 30.2397 81.0566 29.7658C78.1677 29.018 75.2838 28.9453 72.3207 28.9597C72.1047 28.9602 71.8887 28.9607 71.6661 28.9612C60.3675 29.0061 50.7253 33.1684 42.5753 40.9536C42.1864 41.3243 41.793 41.6903 41.3995 42.0561C34.4837 48.6746 29.7933 58.272 29.5314 67.9102C29.5148 68.9382 29.5134 69.9658 29.5185 70.9939C29.5192 71.3178 29.5192 71.3178 29.52 71.6483C29.5327 74.8353 29.6612 77.893 30.4436 80.9962C30.5155 81.3014 30.5155 81.3014 30.5889 81.6128C31.3297 84.7262 32.3928 87.6183 33.7952 90.4923C33.8813 90.6697 33.9673 90.8472 34.056 91.03C36.1528 95.2943 38.8843 98.8151 42.1741 102.223C42.339 102.405 42.5039 102.588 42.6738 102.776C48.5711 109.142 58.7148 113.657 67.3125 114.011C68.5281 114.045 69.7432 114.047 70.9591 114.041C71.1745 114.04 71.3898 114.039 71.6116 114.038C83.1525 113.981 92.9591 109.794 101.385 101.943C101.691 101.665 101.691 101.665 102.003 101.382C106.472 97.1459 109.731 91.5392 111.719 85.7443C111.791 85.5363 111.863 85.3284 111.937 85.1142C113.343 80.9705 114.16 76.7847 114.316 72.4073C114.387 70.4747 114.49 68.9939 115.908 67.59C117.05 66.5416 118.112 66.099 119.662 66.0015C121.327 66.0802 122.534 66.7218 123.729 67.8693C124.676 69.0612 124.708 70.2063 124.689 71.6747C124.686 71.9166 124.684 72.1585 124.681 72.4077C124.343 85.7945 118.748 98.5237 109.485 108.088C109.343 108.237 109.202 108.385 109.056 108.538C105.827 111.926 102.295 114.585 98.3128 117.026C98.0093 117.215 97.7058 117.405 97.3931 117.6C94.6672 119.24 91.7984 120.401 88.8167 121.494C88.5033 121.612 88.5033 121.612 88.1835 121.732C75.6865 126.36 61.2407 125.596 49.1565 120.098C36.2449 114.005 26.1889 103.513 21.1911 90.0616C16.5273 76.9164 16.4064 62.5966 22.3314 49.7812C22.61 49.1979 22.8945 48.6181 23.1819 48.0392C23.27 47.8584 23.3582 47.6776 23.4489 47.4914C29.7892 34.5908 41.3451 25.1907 54.7425 20.3888C59.9824 18.6127 65.4393 17.7643 70.9591 17.7878Z"
            fill="#FDFEFE" />
        <path
            d="M109.205 39.9396C111.22 40.6143 112.71 41.6421 113.674 43.5704C113.871 45.6705 113.856 47.4428 112.557 49.1564C111.747 50.081 110.914 50.9779 110.066 51.8675C109.319 52.6556 108.626 53.4743 107.948 54.3234C106.881 55.6531 105.745 56.8965 104.58 58.1397C103.71 59.0745 102.883 60.0294 102.083 61.0265C101.016 62.3562 99.8795 63.5996 98.7151 64.8428C97.8445 65.7777 97.0177 66.7326 96.2178 67.7296C95.1509 69.0594 94.0143 70.3027 92.8498 71.5459C91.9793 72.4808 91.1525 73.4357 90.3525 74.4327C89.2856 75.7625 88.1491 77.0058 86.9846 78.2491C86.114 79.1839 85.2873 80.1388 84.4873 81.1359C83.5536 82.2996 82.5738 83.3993 81.5547 84.4874C80.5247 85.5873 79.5337 86.7 78.5872 87.8739C74.263 93.2146 74.263 93.2146 71.3778 93.7391C68.3718 93.2118 66.0633 90.2153 63.9972 88.1477C63.6278 87.7804 63.2584 87.4131 62.8888 87.0459C62.1182 86.2789 61.3492 85.5104 60.5812 84.7407C59.6005 83.7584 58.6148 82.7813 57.6277 81.8055C56.8645 81.0495 56.1045 80.2903 55.3455 79.5302C54.9835 79.1687 54.6204 78.8083 54.2561 78.449C50.2584 74.5002 50.2584 74.5002 49.8545 71.6223C50.1448 69.6266 51.0209 68.3542 52.5689 67.0947C54.0871 66.0492 55.4402 65.932 57.2559 66.1935C59.5488 67.0477 61.3075 69.3569 62.9793 71.0681C63.8249 71.9311 64.7032 72.7303 65.6271 73.5087C66.5663 74.3465 67.4412 75.2501 68.3199 76.1507C69.2407 77.0875 70.1998 77.9348 71.2207 78.7618C72.4369 78.3209 73.1139 77.3725 73.9089 76.4053C74.2078 76.0485 74.5071 75.6922 74.8068 75.3361C74.9555 75.1591 75.1041 74.9822 75.2573 74.7999C75.8672 74.0847 76.5006 73.3952 77.1383 72.7046C78.0346 71.7284 78.8904 70.7341 79.7218 69.7021C80.7437 68.4351 81.8197 67.2384 82.9277 66.0478C83.7575 65.1509 84.543 64.2311 85.3077 63.2783C86.3811 61.9439 87.5228 60.6941 88.6924 59.4452C89.7881 58.2686 90.8048 57.0426 91.8112 55.7886C92.6318 54.7991 93.5037 53.8613 94.379 52.9207C95.2088 52.0239 95.9942 51.1041 96.7589 50.1514C97.8313 48.8181 98.9711 47.5685 100.141 46.3219C101.048 45.3495 101.9 44.3496 102.729 43.3086C104.606 40.9707 106.106 39.5592 109.205 39.9396Z"
            fill="#FDFEFE" />
    </g>
    <defs>
        <clipPath id="clip0_1_28304">
            <rect width="143" height="143" fill="white" />
        </clipPath>
    </defs>
</svg>
